<?xml version="1.0" standalone="no"?>
<!DOCTYPE svg PUBLIC "-//W3C//DTD SVG 20010904//EN"
 "http://www.w3.org/TR/2001/REC-SVG-20010904/DTD/svg10.dtd">
<svg version="1.0" xmlns="http://www.w3.org/2000/svg"
 width="1200.000000pt" height="293.000000pt" viewBox="0 0 1200.000000 293.000000"
 preserveAspectRatio="xMidYMid meet">

<g transform="translate(0.000000,293.000000) scale(0.100000,-0.100000)"
fill="#000000" stroke="none">
<path d="M589 1293 c-6 -15 -35 -91 -64 -168 -29 -77 -65 -171 -80 -210 -51
-134 -274 -720 -299 -787 l-25 -68 88 0 88 0 69 193 69 192 241 3 242 2 60
-172 c32 -95 63 -183 66 -195 7 -22 13 -23 96 -23 l90 0 -25 67 c-14 38 -117
320 -229 628 l-203 560 -87 3 c-86 3 -86 3 -97 -25z m186 -435 c47 -135 85
-250 85 -257 0 -8 -53 -11 -185 -11 l-184 0 14 38 c7 20 50 136 94 256 45 121
81 222 81 224 0 19 19 -32 95 -250z"/>
<path d="M2323 1283 l-83 -35 0 -114 0 -114 -75 0 -75 0 0 -65 0 -65 74 0 75
0 3 -367 c3 -342 4 -370 22 -400 11 -17 31 -37 45 -43 37 -17 127 -24 205 -15
l66 7 0 65 0 65 -42 -8 c-61 -11 -88 -8 -107 10 -14 15 -16 58 -19 351 l-3
335 85 0 86 0 0 65 0 65 -85 0 -84 0 -3 149 -3 150 -82 -36z"/>
<path d="M4170 1245 l0 -75 350 0 c221 0 350 -4 350 -10 0 -5 -157 -216 -350
-469 l-350 -460 0 -85 0 -86 460 0 460 0 0 75 0 75 -366 2 -365 3 355 474 356
474 0 78 0 79 -450 0 -450 0 0 -75z"/>
<path d="M1513 1045 c-160 -43 -246 -155 -230 -296 16 -130 85 -182 324 -240
210 -51 271 -89 280 -171 10 -100 -71 -162 -211 -163 -107 0 -167 18 -215 66
l-38 39 -59 -10 c-114 -20 -107 -16 -87 -51 28 -48 100 -106 158 -128 29 -11
89 -25 134 -31 265 -36 481 96 481 295 0 77 -25 130 -80 178 -52 45 -113 68
-287 112 -200 51 -243 80 -243 161 0 149 260 184 377 51 l32 -36 63 25 c35 14
67 29 71 34 8 7 -37 68 -73 98 -84 71 -266 102 -397 67z"/>
<path d="M3527 1050 c-66 -17 -133 -58 -181 -111 -25 -28 -46 -54 -46 -58 0
-5 128 -61 140 -61 3 0 14 15 24 34 35 66 146 101 242 77 98 -25 138 -81 150
-209 l7 -71 -34 -5 c-19 -2 -86 -10 -149 -16 -126 -12 -253 -41 -309 -70 -48
-24 -98 -75 -124 -124 -29 -58 -29 -165 1 -223 48 -93 144 -150 268 -160 111
-10 218 27 303 103 l49 44 7 -52 c11 -92 7 -88 95 -88 l80 0 -6 33 c-3 17 -8
39 -11 47 -4 8 -9 164 -12 345 l-6 330 -32 67 c-36 76 -79 114 -172 149 -63
24 -220 35 -284 19z m330 -593 c-3 -46 -13 -102 -23 -125 -61 -154 -337 -206
-414 -79 -41 66 -17 152 53 196 47 29 279 86 366 90 24 1 24 1 18 -82z"/>
<path d="M5494 1045 c-171 -37 -283 -151 -330 -335 -23 -91 -15 -280 16 -368
46 -132 144 -234 259 -270 75 -23 247 -22 311 2 65 24 144 81 175 127 16 22
26 41 24 44 -3 2 -36 9 -73 15 l-69 11 -36 -34 c-57 -55 -96 -70 -178 -70 -59
1 -80 6 -125 29 -88 48 -148 161 -148 281 l0 53 341 0 342 0 -6 83 c-12 151
-57 257 -145 339 -61 58 -97 76 -180 94 -80 16 -99 16 -178 -1z m193 -134 c77
-39 128 -124 135 -226 l3 -40 -252 -3 c-286 -3 -264 -10 -239 83 18 69 40 108
83 150 67 65 184 81 270 36z"/>
<path d="M7313 1045 c-227 -51 -358 -256 -339 -530 14 -208 92 -350 231 -418
193 -95 466 -36 557 121 l18 30 -77 11 -77 11 -35 -34 c-57 -54 -97 -69 -176
-69 -116 1 -201 55 -246 158 -21 46 -44 179 -34 195 4 6 125 10 346 10 l339 0
0 58 c-1 119 -43 247 -111 333 -82 104 -250 157 -396 124z m166 -121 c93 -27
150 -108 167 -237 l7 -47 -254 2 -254 3 3 30 c9 83 63 185 117 221 67 44 132
53 214 28z"/>
<path d="M8260 1049 c-167 -28 -296 -158 -345 -344 -21 -82 -21 -248 0 -322
50 -171 161 -284 318 -324 27 -6 90 -10 149 -7 86 3 113 8 162 31 70 32 134
83 158 124 l17 30 -65 28 -65 28 -31 -37 c-86 -105 -261 -112 -372 -15 -151
133 -149 511 4 641 65 56 162 73 253 46 40 -12 120 -79 129 -107 3 -12 18 -9
76 14 40 15 72 32 72 37 0 14 -74 90 -112 114 -87 55 -237 82 -348 63z"/>
<path d="M9070 1046 c-25 -7 -63 -22 -85 -34 -45 -22 -125 -103 -125 -126 0
-8 29 -26 67 -42 55 -24 67 -26 71 -14 3 8 21 31 41 51 57 57 141 73 237 44
83 -24 119 -80 130 -204 l7 -70 -34 -5 c-19 -2 -86 -10 -149 -16 -120 -11
-253 -41 -302 -66 -46 -24 -108 -84 -131 -128 -33 -65 -30 -165 8 -235 48 -88
134 -138 254 -148 116 -10 205 20 304 101 l54 44 7 -60 c3 -33 8 -64 12 -69 3
-5 41 -9 86 -9 l80 0 -6 26 c-15 59 -25 240 -26 445 0 119 -5 241 -10 270 -22
116 -81 185 -197 229 -72 28 -225 36 -293 16z m340 -583 c-1 -129 -41 -202
-132 -247 -189 -92 -383 14 -309 168 34 68 109 101 326 140 125 22 115 27 115
-61z"/>
<path d="M6439 1026 c-56 -20 -105 -54 -143 -98 l-35 -40 -3 63 -3 64 -77 3
-78 3 0 -481 0 -481 78 3 77 3 5 336 5 336 28 41 c87 133 283 158 384 50 41
-43 43 -67 43 -419 l0 -339 81 0 80 0 -3 373 -3 373 -30 59 c-35 69 -101 124
-177 149 -60 19 -178 20 -229 2z"/>
<path d="M3065 1005 c-43 -17 -75 -40 -112 -80 -29 -30 -55 -55 -58 -55 -4 0
-6 24 -5 53 3 105 10 97 -80 97 l-80 0 0 -480 0 -480 79 0 79 0 4 308 c3 290
4 310 24 352 45 93 111 135 232 146 l72 7 0 78 0 79 -47 0 c-27 0 -74 -11
-108 -25z"/>
</g>
</svg>
