<?xml version="1.0" standalone="yes"?>
<svg xmlns="http://www.w3.org/2000/svg" width="1200" height="293">
<path style="fill:#010101; stroke:none;" d="M0 0L0 293L1200 293L1200 0L0 0z"/>
<path style="fill:#fdaf17; stroke:none;" d="M1059 213C1047.72 217.927 1037.08 226.972 1028 235.17C1015.17 246.759 990.092 278.258 1019 288.025C1022.79 289.307 1027.02 290.4 1031 290.826C1062.18 294.166 1103.15 283.191 1132 271.938C1134.74 270.871 1137.44 269.641 1139.96 268.127C1146.66 264.107 1149.97 255.643 1143.77 249.326C1135.49 240.89 1117.5 230.631 1106 228L1106 227C1113.59 224.121 1120.16 218.391 1127 214.053C1145.84 202.1 1182.8 184.501 1181.87 158C1180.93 131.602 1138.94 121.705 1119 115.565C1112.69 113.621 1106.63 110.661 1100 110L1100 109L1104 109C1104 84.1634 1102.69 58.4054 1097.8 34C1095.88 24.4402 1092.49 12.2184 1083 7.5687C1067.63 0.0382385 1051.9 12.3268 1041 22.1698C1013.21 47.2741 988.138 77.73 966.152 108C958.999 117.848 942.498 136.698 946.653 150C950.049 160.873 966.829 165.282 976 169.923C1003.79 183.985 1031.04 199.343 1059 213z"/>
<path style="fill:#ffff01; stroke:none;" d="M1045 18L1046 19L1045 18z"/>
<path style="fill:#010101; stroke:none;" d="M1023 93L1100 109C1092.51 104.296 1078.64 105.823 1072.6 99.4367C1063.46 89.7729 1072.64 68.2003 1064.84 57.3225C1061.3 52.3971 1054.66 59.5015 1052 62.0394C1042.72 70.8964 1028.63 81.3814 1023 93M1013.67 92.3333L1014.33 92.6667L1013.67 92.3333M1005 98L1006 99L1005 98M1004 101C1004.12 116.587 989.601 125.005 978.985 135.09C975.433 138.465 966.324 144.948 969.697 150.671C973.643 157.367 985.372 161.93 992 165.407C1008.75 174.193 1025.37 183.293 1042 192.309C1048.11 195.62 1065.18 200.968 1064 209C1082.29 200.451 1100.1 187.718 1117 176.656C1120.99 174.043 1132.78 167.694 1132.08 162.011C1131.07 153.81 1108.79 146.312 1102 144C1101.94 151.087 1100.59 158.068 1099.2 165C1097.69 172.55 1096.18 180.647 1091.21 186.826C1080.37 200.323 1063.42 189.02 1054 179.961C1036.29 162.924 1019.95 140.215 1009.39 118C1006.75 112.463 1006.34 106.429 1004 101M1020 110C1024.78 130.143 1041.53 149.555 1054.59 165C1057.52 168.462 1067.78 180.955 1073.14 175.393C1075.91 172.517 1075 166.62 1075 163C1075 153.466 1071.17 140.682 1076 132C1058.24 125.11 1038.83 112.926 1020 110M1078 133L1081 135L1081 134L1078 133M1082.67 135.333L1083.33 135.667L1082.67 135.333M1085 136L1088 138L1088 137L1085 136M1089 138L1090 139L1089 138M1091 139L1091 140L1095 141L1095 140L1091 139M1096 141L1097 142L1096 141M1098 142L1099 143L1098 142M1100 143L1101 144L1100 143z"/>
<path style="fill:#870153; stroke:none;" d="M11 288L31 288L44 249L76 249C79.8357 249 86.2347 247.805 89.581 250.028C99.7699 256.797 95.1247 279.788 104.702 286.972C108.717 289.983 119.138 288 124 288C122.328 276.675 116.525 265.734 112.692 255C104.948 233.315 97.0283 211.693 89.3079 190C86.967 183.423 82.5587 161.428 74.9452 160.148C55.3729 156.858 54.2178 171.913 48.5756 187C40.8394 207.687 33.1793 228.486 25 249C20.1051 261.276 12.961 274.907 11 288M223 190L208 190L208 205L223 205L223 262C223 269.501 221.686 279.161 228.109 284.581C235.803 291.074 249.895 287.719 259 287L259 272C254.881 272.177 248.927 274.338 245.419 271.397C240.612 267.366 242 258.515 242 253L242 205L259 205L259 190L242 190L242 160C222.219 162.965 223 173.055 223 190M416 160L416 177L485 177L436.989 241L416.564 269L416 288L510 288L510 271L438 271C451.692 254.13 463.847 236.055 477.286 219C486.43 207.396 502.57 191.991 507.297 178C509.114 172.623 508 165.619 508 160L416 160z"/>
<path style="fill:#ffff01; stroke:none;" d="M977 170L978 171L977 170z"/>
<path style="fill:#010101; stroke:none;" d="M68 185L51 233L85 233C81.0143 218.091 76.2448 198.04 68 185z"/>
<path style="fill:#870153; stroke:none;" d="M125 267C130.823 297.095 189.853 294.746 202.651 271.996C218.118 244.503 188.696 231.508 167 226.79C160.109 225.292 145.506 222.125 145.282 213C144.92 198.276 166.602 198.558 175 203.969C178.203 206.033 181.252 210.98 185.17 211.494C188.416 211.92 198.372 208.319 199.168 204.775C200.772 197.634 187.171 190.589 182 188.619C165.897 182.484 139.728 184.811 130.228 201C128.13 204.575 127.219 208.895 127.039 213C125.504 248.074 166.786 235.372 183.867 253.105C197.308 267.06 172.216 276.706 161 274.331C153.491 272.741 149.402 266.837 142.83 264.692C138.016 263.121 129.795 265.819 125 267M346 213C350.179 199.95 367.813 195.945 377.895 205.225C383.899 210.751 384.841 219.281 385 227C367.542 229.206 343.048 227.38 329.301 240.468C314.884 254.193 320.39 278.341 338 285.957C354.579 293.127 373.359 288.063 386 276L388 288L406 288C404.772 272.467 403 257.68 403 242C403 229.577 404.753 215.738 399.801 204.004C391.216 183.662 356.714 180.688 340 191.853C324.355 202.305 331.161 209.475 346 213M597 267C592.04 266.609 585.995 264.382 581.089 265.343C575.541 266.429 571.579 272.571 566 274.4C551.824 279.049 538.829 267.902 534.598 255C533.102 250.438 533.003 245.746 533 241L601 241C601 223.337 598.247 204.935 583 193.61C555.357 173.076 517.368 195.038 514.171 227C512.212 246.578 515.203 270.363 533.004 282.099C550.934 293.919 590.969 292.44 597 267M779 267C774.031 266.608 767.908 264.344 763 265.357C757.7 266.452 754.122 272.078 749 274.045C735.512 279.223 721.955 269.406 717.232 257C715.258 251.815 715.004 246.403 714 241L783 241C783 224.013 781.107 206.419 766.961 194.819C737.983 171.058 698.452 196.294 696.089 230C694.735 249.331 698.67 272.841 717 283.316C734.595 293.372 774.181 291.906 779 267M873 268L858 262C845.611 278.25 824.614 278.658 813.88 260C804.952 244.482 806.677 218.663 820.04 206.108C827.517 199.083 839.415 197.888 847.999 203.699C851.46 206.042 854.041 211.057 858.089 212.303C862.793 213.751 869.985 209.141 874 207C864.882 183.466 826.213 180.642 808 193.927C789.314 207.558 784.75 235.638 790.746 257C797.617 281.479 817.751 289.274 841 288.996C853.453 288.847 870.386 281.482 873 268M901 213C905.385 200.102 922.838 195.967 932.895 205.225C938.898 210.751 939.841 219.281 940 227C921.952 229.281 897.349 227.434 883.468 241.465C869.395 255.688 876.438 279.475 894 286.522C910.688 293.217 928.113 287.151 941 276C941.29 290.055 949.358 288 961 288C960.395 273.913 958 260.216 958 246C958 232.84 960.188 217.483 955.239 205C946.952 184.094 913.566 180.763 896 191.225C892.661 193.213 882.071 201.484 885.086 206.298C887.359 209.928 897.025 212.056 901 213M627 200L627 190L609 190L609 288L627 288L627 242C627 234.659 625.617 225.765 629 219C636.405 204.191 658.12 198.834 668.297 214.004C672.569 220.371 671 229.721 671 237L671 287L689 287L689 236C689 225.965 690.095 215.555 686.444 206C676.938 181.115 642.583 184.557 627 200M291 204L290 204L290 190L272 190L272 288L290 288C290 257.62 279.392 207.12 323 207L323 189C310.484 189 296.905 191.339 291 204z"/>
<path style="fill:#010101; stroke:none;" d="M533 228L582 228C581.192 221.642 579.966 215.353 576.2 210.001C560.156 187.202 535.687 207.213 533 228M715 228L764 228C762.516 209.23 744.596 190.128 726.04 205.39C719.041 211.148 717.157 219.684 715 228M1062 209L1061 211L1062 209M1059 211L1060 212L1059 211z"/>
<path style="fill:#ffff01; stroke:none;" d="M1060 211L1061 212L1060 211z"/>
<path style="fill:#ff0101; stroke:none;" d="M145 216L146 217L145 216z"/>
<path style="fill:#010101; stroke:none;" d="M1104 228L1103 230L1104 228M1101 230L1102 231L1101 230M1099 231L1061 259L1127 254L1127 253L1098 235L1099 231M385 240C377.963 240.89 370.923 242.116 364 243.665C359.707 244.625 355.024 245.735 351 247.529C341.868 251.601 336.831 263.226 346.105 270.348C357.515 279.111 377.413 271.438 382.517 259C384.949 253.072 384.999 246.298 385 240M940 240C932.665 241.367 925.297 242.408 918 244.014C913.965 244.902 909.779 245.978 906.004 247.681C897.471 251.529 892.158 263.473 901.109 270.146C912.914 278.947 932.613 271.803 938.045 259C940.589 253.003 940 246.36 940 240z"/>
</svg>
